<?xml version="1.0" encoding="utf-8"?>
<!-- Generator: Adobe Illustrator 19.2.1, SVG Export Plug-In . SVG Version: 6.00 Build 0)  -->
<svg version="1.1" id="Layer_1" xmlns="http://www.w3.org/2000/svg" xmlns:xlink="http://www.w3.org/1999/xlink" x="0px" y="0px"
	 viewBox="0 0 300 37" style="enable-background:new 0 0 300 37;" xml:space="preserve">
<style type="text/css">
	.st0{fill-rule:evenodd;clip-rule:evenodd;fill:#414A54;}
	.st1{fill-rule:evenodd;clip-rule:evenodd;fill:#034161;}
	.st2{fill:#034161;}
	.st3{fill:#515C66;}
</style>
<g id="XMLID_70_">
	<path id="XMLID_55_" class="st0" d="M35.6,25.3c-2.7,6.7-9.2,11.4-16.8,11.4c-7.6,0-14.1-4.7-16.8-11.3c8.1,0.7,9.8,2.6,16.7,6
		C24.3,27.6,28.8,25.8,35.6,25.3"/>
	<path id="XMLID_51_" class="st1" d="M19.2,14.6c1.6-4.9,5.2-6.3,9.2-6.4c2,3.8,4.1,7.6,6.1,11.3c-7.4,1.7-11.8,4.4-15.6,10.3
		C19,24.8,19.1,19.7,19.2,14.6 M17.8,14.6c-1.6-4.9-5.2-6.3-9.2-6.4c-2,3.8-4.1,7.6-6.1,11.3c7.4,1.7,11.8,4.4,15.6,10.3
		C18,24.8,17.9,19.7,17.8,14.6z M18.7,0.3c9.8,0,17.8,7.8,18.1,17.6l-4.2-6.6c-0.5-0.2-0.9-0.3-1.4-0.5l5.4,10.4
		c-0.1,0.4-0.1,0.8-0.2,1.2c-8.4,0.5-13.6,3.5-17.9,8.3c-4-3.7-7.7-7.6-17.6-8.3c-0.1-0.6-0.2-1.3-0.3-1.9l5.1-9.7
		c-0.5,0.2-0.9,0.3-1.4,0.5l-3.7,5.9C1.3,7.8,9.1,0.3,18.7,0.3z"/>
</g>
<g>
	<path class="st2" d="M59.2,25.1l-1.4,4.2h-13c0.2-0.1,0.3-0.2,0.5-0.2c0.3-0.2,0.5-0.4,0.7-0.7c0.2-0.4,0.3-0.8,0.4-1.2
		c0-0.4,0.1-1,0.1-1.6v-13c0-0.3,0-0.6,0-0.7c0-0.3,0-0.5-0.1-0.8c0-0.2-0.1-0.5-0.3-0.7s-0.3-0.4-0.5-0.6c-0.2-0.1-0.4-0.3-0.7-0.4
		h10.5l0.5-0.1L56.3,9v3.7l-0.6-0.6c-0.3-0.3-0.8-0.5-1.5-0.6c-0.6-0.1-1.3-0.2-2.1-0.2c-0.5,0-0.9,0-1.4,0.1c-0.5,0-0.8,0.1-1,0.1
		l-0.2,0v5.6h3.9c0.4,0,0.7,0,0.8-0.1l0.4-0.2v3.4c-0.1-0.1-0.2-0.3-0.3-0.4s-0.2-0.2-0.3-0.3c-0.3-0.1-0.6-0.2-1.1-0.3
		s-0.9-0.1-1.3-0.1h-2v7.3c0.1,0,0.6,0.1,1.7,0.2S53,27,53.8,27c1,0,1.7-0.1,2.3-0.3c0.8-0.3,1.4-0.5,1.7-0.7S58.6,25.6,59.2,25.1z"
		/>
	<path class="st2" d="M81.6,9.2c-0.7,0.3-1.1,0.7-1.4,1.2c-0.1,0.2-0.2,0.4-0.3,0.7c-0.1,0.3-0.1,0.6-0.1,0.9c0,0.2,0,0.3,0,0.4
		v17.8c-0.5-0.1-0.9-0.3-1.2-0.5c-0.3-0.2-0.7-0.4-1.1-0.8c-0.3-0.2-0.5-0.4-0.8-0.7c-0.1-0.1-0.5-0.5-1-1.3L64.9,13.5l0,12.5
		c0,0.1,0,0.2,0,0.3c0,0.4,0,0.8,0.1,1.1c0.1,0.3,0.3,0.7,0.6,1.2c0.1,0.1,0.2,0.2,0.5,0.4c0.2,0.2,0.4,0.2,0.5,0.3h-5.9
		c0.2-0.1,0.4-0.2,0.7-0.3c0.3-0.2,0.5-0.4,0.7-0.7c0.2-0.3,0.3-0.6,0.4-0.9c0.1-0.4,0.1-0.7,0.1-0.9c0-0.1,0-0.2,0-0.3V12.3
		c0-0.4,0-0.7-0.1-1.1c0-0.3-0.1-0.6-0.3-0.8c-0.2-0.3-0.4-0.6-0.6-0.7c-0.2-0.2-0.5-0.3-0.8-0.5h4.9c0,0.2,0.1,0.4,0.1,0.5
		C65.9,9.9,66,10,66,10c0.1,0.2,0.3,0.4,0.4,0.6l11,13.9V12.4c0-0.5,0-0.9-0.1-1.2c-0.1-0.3-0.2-0.6-0.4-1c-0.1-0.2-0.3-0.4-0.5-0.5
		c-0.2-0.1-0.4-0.3-0.7-0.4H81.6z"/>
	<path class="st2" d="M102.1,18.6c0,3.1-1,5.7-3,7.6c-2.1,2-4.9,3-8.4,3h-7.4c0.5-0.3,0.9-0.7,1.2-1.1c0.2-0.3,0.3-0.6,0.3-0.8
		c0.1-0.2,0.1-0.5,0.1-0.7c0-0.2,0-0.4,0-0.5V12.4c0-0.2,0-0.3,0-0.3c0-0.6,0-1-0.1-1.2c0-0.3-0.2-0.6-0.4-0.8
		c-0.1-0.2-0.3-0.4-0.4-0.5c-0.1-0.1-0.3-0.2-0.6-0.3h8.2c2.7,0,5.1,0.7,7,2.1C100.9,13.1,102.1,15.5,102.1,18.6z M98.7,19.2
		c0-2.8-0.9-4.9-2.6-6.3c-1.4-1.1-3.2-1.7-5.4-1.7c-0.8,0-1.6,0.1-2.3,0.3l-0.4,0.1v15l1.1,0.1c0.4,0,0.9,0.1,1.3,0.1
		c2.4,0,4.3-0.6,5.8-1.7C97.8,23.8,98.7,21.8,98.7,19.2z"/>
	<path class="st2" d="M122.7,29.2H118v-2c-0.7,0.7-1.5,1.3-2.4,1.7c-0.9,0.4-2,0.7-3.1,0.7c-2.2,0-4-0.5-5.3-1.5
		c-1.5-1.2-2.3-3-2.3-5.5v-11c0-0.3-0.1-0.6-0.2-1c-0.1-0.3-0.2-0.6-0.4-0.8c-0.2-0.3-0.5-0.5-0.9-0.7h5.9c-0.2,0.1-0.4,0.2-0.5,0.3
		s-0.3,0.2-0.4,0.5c-0.1,0.1-0.2,0.4-0.3,0.8c-0.1,0.4-0.1,0.6-0.1,0.8v10.5c0,1.8,0.4,3.2,1.3,4.1c0.8,0.9,2,1.3,3.4,1.3
		c0.2,0,0.3,0,0.4,0c0.1,0,0.2,0,0.3,0c1.3-0.1,2.4-0.6,3.2-1.4c0.9-0.8,1.3-1.7,1.3-2.7v-11c0-0.5,0-0.9,0-1.2c0-0.3-0.1-0.6-0.3-1
		c-0.1-0.2-0.2-0.4-0.4-0.5c-0.1-0.1-0.3-0.3-0.6-0.4h5.9c-0.3,0.2-0.6,0.3-0.7,0.4c-0.1,0.1-0.2,0.3-0.4,0.5
		c-0.1,0.2-0.2,0.5-0.3,0.9c-0.1,0.3-0.1,0.7-0.1,1.1c0,0.1,0,0.3,0,0.3v13.9c0,0.5,0,0.9,0.1,1.2c0.1,0.3,0.2,0.6,0.4,1
		c0.1,0.2,0.3,0.4,0.4,0.5C122.1,29,122.3,29.1,122.7,29.2z"/>
	<path class="st2" d="M143.3,29.2c0,0-0.3,0-0.8,0c-0.5,0-1.1,0-1.7,0c-0.2,0-0.3,0-0.4,0c-1,0-1.7-0.1-2.2-0.2
		c-0.4-0.1-1-0.5-1.7-1.1c-0.5-0.5-1.2-1.3-1.9-2.2c-0.3-0.4-1-1.3-2-2.6c-0.5-0.6-1.1-1.4-1.8-2.6c-0.6-0.9-0.9-1.5-1.1-1.7
		c0.3,0,0.7-0.1,1.1-0.2c0.5-0.1,0.9-0.3,1.4-0.5c0.8-0.4,1.5-0.8,1.9-1.3c0.6-0.7,0.9-1.5,0.9-2.3c0-0.1,0-0.2,0-0.4s0-0.2,0-0.3
		c-0.1-0.8-0.6-1.5-1.3-2s-1.6-0.7-2.7-0.7c-0.4,0-0.9,0.1-1.5,0.2l-0.5,0.1V26c0,0.2,0,0.3,0,0.5c0,0.4,0,0.8,0,1
		c0,0.2,0.1,0.5,0.2,0.7c0.1,0.3,0.3,0.5,0.4,0.6c0.1,0.1,0.3,0.3,0.6,0.4h-5.8c0.3-0.1,0.5-0.3,0.7-0.4c0.2-0.1,0.3-0.3,0.4-0.6
		c0.1-0.3,0.2-0.5,0.2-0.8c0-0.3,0.1-0.6,0.1-1c0-0.2,0-0.4,0-0.4V12.3c0-0.6,0-1-0.1-1.3c-0.1-0.3-0.2-0.6-0.4-0.8
		c-0.2-0.4-0.6-0.7-1-0.9h7.6c1.7,0,3.1,0.4,4.2,1.2c1.3,0.9,1.9,2.2,1.9,3.8c0,1.1-0.4,2.1-1.3,3.1c-0.9,1-2,1.7-3.3,2.1l-0.3,0.1
		l4.9,6.2c0.3,0.4,0.8,0.8,1.3,1.3c0.5,0.4,0.9,0.7,1.3,0.9c0.4,0.2,0.8,0.5,1.3,0.7C142.4,28.9,142.9,29.1,143.3,29.2z"/>
	<path class="st2" d="M152,29.2h-6.1c0.2-0.1,0.4-0.2,0.5-0.3c0.3-0.2,0.5-0.4,0.6-0.6c0.1-0.3,0.2-0.5,0.3-0.9
		c0.1-0.3,0.1-0.7,0.1-1.1c0-0.2,0-0.4,0-0.4V12.3c0-0.1,0-0.3,0-0.3c0-0.5,0-0.8-0.1-1.1s-0.2-0.5-0.4-0.9s-0.5-0.6-1-0.8h6.1
		c-0.3,0.1-0.5,0.2-0.6,0.4c-0.2,0.1-0.3,0.3-0.4,0.5c-0.1,0.2-0.2,0.6-0.3,1c-0.1,0.5-0.1,0.9-0.1,1.3v13.7c0,0.2,0,0.3,0,0.4
		c0,0.4,0,0.7,0.1,1c0,0.3,0.2,0.6,0.3,0.9c0.1,0.2,0.3,0.4,0.4,0.5C151.5,29,151.7,29.1,152,29.2z"/>
	<path class="st2" d="M175.3,9.2c-0.7,0.3-1.1,0.7-1.4,1.2c-0.1,0.2-0.2,0.4-0.3,0.7c-0.1,0.3-0.1,0.6-0.1,0.9c0,0.2,0,0.3,0,0.4
		v17.8c-0.5-0.1-0.9-0.3-1.2-0.5c-0.3-0.2-0.7-0.4-1.1-0.8c-0.3-0.2-0.5-0.4-0.8-0.7c-0.1-0.1-0.5-0.5-1-1.3l-10.7-13.5l0,12.5
		c0,0.1,0,0.2,0,0.3c0,0.4,0,0.8,0.1,1.1c0.1,0.3,0.3,0.7,0.6,1.2c0.1,0.1,0.2,0.2,0.5,0.4c0.2,0.2,0.4,0.2,0.5,0.3h-5.9
		c0.2-0.1,0.4-0.2,0.7-0.3c0.3-0.2,0.5-0.4,0.7-0.7c0.2-0.3,0.3-0.6,0.4-0.9s0.1-0.7,0.1-0.9c0-0.1,0-0.2,0-0.3V12.3
		c0-0.4,0-0.7-0.1-1.1s-0.1-0.6-0.3-0.8c-0.2-0.3-0.4-0.6-0.6-0.7c-0.2-0.2-0.5-0.3-0.8-0.5h4.9c0,0.2,0.1,0.4,0.1,0.5
		c0.1,0.2,0.2,0.3,0.2,0.3c0.1,0.2,0.3,0.4,0.4,0.6l11,13.9V12.4c0-0.5,0-0.9-0.1-1.2c-0.1-0.3-0.2-0.6-0.4-1
		c-0.1-0.2-0.3-0.4-0.5-0.5c-0.2-0.1-0.4-0.3-0.7-0.4H175.3z"/>
	<path class="st2" d="M196.5,19.3c-0.1,0.2-0.2,0.4-0.2,0.5c0,0.1,0,0.3,0,0.5c0,0.1,0,0.2,0,0.3v7.7c0,0.2,0,0.4,0,0.5l0.1,0.4
		l-0.8,0.1c-1,0.2-2.1,0.3-3.1,0.5c-1.1,0.1-2.2,0.2-3.3,0.2c-3.3,0-6-0.8-8.3-2.5c-2.6-1.9-3.9-4.5-3.9-7.7c0-3.2,1-5.8,3.1-7.7
		c2.2-2,5.4-3,9.7-3c0.7,0,1.4,0,2,0.1c0.2,0,0.9,0.1,2.2,0.3l0.4,0.1v3.6c-0.7-0.6-1.5-1.1-2.3-1.4c-0.8-0.3-1.7-0.5-2.6-0.5
		c-2.8,0-5,0.8-6.6,2.4s-2.4,3.6-2.4,6.2c0,2.3,0.9,4.2,2.6,5.7c1.7,1.6,3.8,2.4,6.2,2.4c1.2,0,2.5-0.2,3.8-0.5l0.3-0.1v-5.4
		c0-0.4,0-0.7-0.1-0.9c0-0.2-0.2-0.5-0.3-0.8c-0.3-0.4-0.6-0.7-1.1-0.9H196.5z"/>
	<path class="st3" d="M234.7,9.2l-6.4,20.9c-0.1-0.1-0.5-0.3-1-0.6c-0.6-0.4-1-0.7-1.3-1c-0.3-0.3-0.6-0.6-0.8-1.1
		c-0.2-0.4-0.4-1-0.6-1.5L221,14.8l-4.8,15.3c-0.1,0-0.4-0.3-0.9-0.7c-0.5-0.3-0.9-0.7-1.4-1c-0.3-0.2-0.5-0.5-0.8-0.9
		c-0.3-0.4-0.5-0.9-0.6-1.4L208,12.2c-0.1-0.3-0.2-0.6-0.3-0.8c-0.1-0.2-0.2-0.5-0.4-0.8c-0.2-0.3-0.4-0.5-0.5-0.7
		c-0.2-0.2-0.4-0.4-0.7-0.7h4.5c0,0.1-0.1,0.1-0.1,0.1c0,0,0,0.1,0,0.2c0,0.3,0,0.7,0.1,1c0,0.1,0.1,0.3,0.3,0.8l4.6,14.1l3.9-12.9
		c0.1-0.3,0.1-0.5,0.1-0.6c0-0.1,0-0.3,0-0.5c0-0.2,0-0.5-0.1-0.9c0-0.3-0.2-0.6-0.5-0.9c-0.2-0.2-0.4-0.3-0.8-0.5h4.5
		c-0.1,0.3-0.1,0.5-0.1,0.6c0,0.3,0,0.6,0.1,1c0.1,0.3,0.2,0.7,0.3,1l4.4,13.6l3.9-12.8c0.2-0.6,0.2-1,0.2-1.3c0-0.2,0-0.4-0.1-0.8
		c-0.1-0.3-0.3-0.6-0.5-0.9c-0.3-0.2-0.6-0.4-1-0.5H234.7z"/>
	<path class="st3" d="M258.6,19.8c0,2.6-0.9,4.9-2.8,6.9c-2,2.1-4.6,3.1-7.8,3.1c-3.5,0-6.3-1-8.4-3c-2.2-2-3.2-4.5-3.2-7.5
		c0-2.8,0.9-5.2,2.8-7.3c2-2.2,4.6-3.3,7.8-3.3c3.9,0,6.9,1.2,8.9,3.5C257.7,14.2,258.6,16.7,258.6,19.8z M255.2,19.3
		c0-2.3-0.6-4.2-1.8-5.8c-1.4-1.8-3.4-2.6-6-2.6c-2.3,0-4.2,0.9-5.6,2.6c-1.3,1.6-1.9,3.6-1.9,5.9c0,2.4,0.7,4.3,2.2,5.9
		c1.5,1.6,3.4,2.3,5.6,2.3c2.2,0,4-0.9,5.5-2.7C254.6,23.4,255.2,21.5,255.2,19.3z"/>
	<path class="st3" d="M279.4,29.2c0,0-0.3,0-0.8,0c-0.5,0-1.1,0-1.7,0c-0.2,0-0.3,0-0.4,0c-1,0-1.7-0.1-2.2-0.2
		c-0.5-0.1-1-0.5-1.7-1.1c-0.5-0.5-1.2-1.3-1.9-2.2c-0.3-0.4-1-1.3-2-2.6c-0.5-0.6-1.1-1.4-1.8-2.6c-0.6-0.9-0.9-1.5-1.1-1.7
		c0.3,0,0.7-0.1,1.1-0.2s0.9-0.3,1.4-0.5c0.8-0.4,1.5-0.8,1.9-1.3c0.6-0.7,0.9-1.5,0.9-2.3c0-0.1,0-0.2,0-0.4c0-0.1,0-0.2,0-0.3
		c-0.1-0.8-0.6-1.5-1.3-2s-1.6-0.7-2.7-0.7c-0.4,0-0.9,0.1-1.5,0.2l-0.5,0.1V26c0,0.2,0,0.3,0,0.5c0,0.4,0,0.8,0,1
		c0,0.2,0.1,0.5,0.2,0.7c0.1,0.3,0.3,0.5,0.4,0.6c0.1,0.1,0.3,0.3,0.6,0.4h-5.8c0.3-0.1,0.5-0.3,0.7-0.4c0.2-0.1,0.3-0.3,0.4-0.6
		c0.1-0.3,0.2-0.5,0.2-0.8c0-0.3,0.1-0.6,0.1-1c0-0.2,0-0.4,0-0.4V12.3c0-0.6,0-1-0.1-1.3c-0.1-0.3-0.2-0.6-0.4-0.8
		c-0.2-0.4-0.6-0.7-1-0.9h7.6c1.7,0,3.1,0.4,4.2,1.2c1.3,0.9,1.9,2.2,1.9,3.8c0,1.1-0.4,2.1-1.3,3.1c-0.9,1-2,1.7-3.3,2.1l-0.3,0.1
		l4.9,6.2c0.3,0.4,0.8,0.8,1.3,1.3c0.5,0.4,0.9,0.7,1.3,0.9c0.4,0.2,0.8,0.5,1.3,0.7C278.5,28.9,279,29.1,279.4,29.2z"/>
	<path class="st3" d="M299.7,18.6c0,3.1-1,5.7-3,7.6c-2.1,2-4.9,3-8.4,3h-7.4c0.5-0.3,0.9-0.7,1.2-1.1c0.2-0.3,0.3-0.6,0.3-0.8
		c0.1-0.2,0.1-0.5,0.1-0.7c0-0.2,0-0.4,0-0.5V12.4c0-0.2,0-0.3,0-0.3c0-0.6,0-1-0.1-1.2c0-0.3-0.2-0.6-0.4-0.8
		c-0.1-0.2-0.3-0.4-0.4-0.5c-0.1-0.1-0.3-0.2-0.6-0.3h8.2c2.7,0,5.1,0.7,7,2.1C298.5,13.1,299.7,15.5,299.7,18.6z M296.3,19.2
		c0-2.8-0.9-4.9-2.6-6.3c-1.4-1.1-3.2-1.7-5.4-1.7c-0.8,0-1.6,0.1-2.3,0.3l-0.4,0.1v15l1.1,0.1c0.4,0,0.9,0.1,1.3,0.1
		c2.4,0,4.3-0.6,5.8-1.7C295.4,23.8,296.3,21.8,296.3,19.2z"/>
</g>
</svg>
